<?xml version="1.0" standalone="no"?>
<!DOCTYPE svg PUBLIC "-//W3C//DTD SVG 20010904//EN"
 "http://www.w3.org/TR/2001/REC-SVG-20010904/DTD/svg10.dtd">
<svg version="1.0" xmlns="http://www.w3.org/2000/svg"
 width="328.000000pt" height="302.000000pt" viewBox="0 0 328.000000 302.000000"
 preserveAspectRatio="xMidYMid meet">

<g transform="translate(0.000000,302.000000) scale(0.100000,-0.100000)"
fill="#000000" stroke="none">
<path d="M2381 2514 c-79 -21 -148 -62 -213 -125 l-58 -57 0 54 c0 46 -4 59
-26 81 -20 20 -31 24 -56 19 -80 -16 -177 -18 -268 -6 -91 12 -100 12 -136 -6
-106 -53 -114 -244 -11 -283 33 -12 47 -12 89 -2 88 23 83 56 86 -529 2 -439
1 -514 -13 -546 -13 -32 -18 -36 -42 -30 -75 17 -91 17 -126 2 -82 -34 -91
-185 -16 -255 22 -21 28 -21 425 -21 l402 0 26 31 c26 30 31 59 26 129 -5 82
-44 103 -178 98 l-97 -3 -12 35 c-14 40 -17 220 -4 220 5 0 36 -18 69 -40 75
-50 129 -70 212 -77 196 -16 365 86 458 277 61 124 76 203 75 400 0 191 -17
272 -80 393 -106 202 -319 298 -532 241z m97 -331 c43 -31 90 -108 103 -171
20 -86 15 -244 -9 -320 -35 -108 -104 -172 -187 -172 -116 0 -191 115 -202
311 -10 177 41 318 130 360 52 24 126 21 165 -8z"/>
<path d="M715 2162 c-80 -38 -115 -110 -100 -209 4 -31 17 -56 40 -81 37 -41
40 -41 227 -31 70 4 79 2 100 -19 23 -23 23 -23 26 -380 2 -229 -1 -380 -8
-421 -26 -151 -114 -234 -263 -248 -165 -15 -290 81 -247 191 l11 30 30 -37
c75 -91 217 -67 285 49 22 38 28 59 27 108 0 34 -7 77 -16 98 -22 52 -90 116
-156 146 -48 23 -69 27 -151 26 -126 0 -188 -24 -276 -106 -196 -184 -192
-470 9 -653 225 -205 644 -234 930 -64 84 50 172 137 210 206 50 94 57 164 57
602 0 265 4 409 11 430 16 45 37 53 102 40 31 -6 71 -9 89 -5 38 7 91 56 107
99 29 75 -2 169 -70 214 -40 26 -49 28 -138 27 -53 -1 -150 -6 -216 -10 -112
-8 -215 -6 -475 10 -91 6 -110 5 -145 -12z"/>
</g>
</svg>
